<mxfile host="Electron" modified="2024-02-21T17:42:57.554Z" agent="Mozilla/5.0 (Windows NT 10.0; Win64; x64) AppleWebKit/537.36 (KHTML, like Gecko) draw.io/23.1.5 Chrome/120.0.6099.109 Electron/28.1.0 Safari/537.36" etag="wJkUHjDeDxSUdYsGnLRu" version="23.1.5" type="device">
  <diagram name="Page-1" id="2YBvvXClWsGukQMizWep">
    <mxGraphModel dx="848" dy="689" grid="1" gridSize="10" guides="1" tooltips="1" connect="1" arrows="1" fold="1" page="1" pageScale="1" pageWidth="850" pageHeight="1100" math="0" shadow="0">
      <root>
        <mxCell id="0" />
        <mxCell id="1" parent="0" />
        <mxCell id="FlEzBT69IL1nMeVk5zN6-3" value="Client App" style="shape=umlLifeline;perimeter=lifelinePerimeter;whiteSpace=wrap;html=1;container=1;dropTarget=0;collapsible=0;recursiveResize=0;outlineConnect=0;portConstraint=eastwest;newEdgeStyle={&quot;curved&quot;:0,&quot;rounded&quot;:0};" parent="1" vertex="1">
          <mxGeometry x="260" y="80" width="100" height="380" as="geometry" />
        </mxCell>
        <mxCell id="FlEzBT69IL1nMeVk5zN6-4" value="Auth Server" style="shape=umlLifeline;perimeter=lifelinePerimeter;whiteSpace=wrap;html=1;container=1;dropTarget=0;collapsible=0;recursiveResize=0;outlineConnect=0;portConstraint=eastwest;newEdgeStyle={&quot;curved&quot;:0,&quot;rounded&quot;:0};" parent="1" vertex="1">
          <mxGeometry x="400" y="80" width="100" height="290" as="geometry" />
        </mxCell>
        <mxCell id="FlEzBT69IL1nMeVk5zN6-5" value="Redirect Server" style="shape=umlLifeline;perimeter=lifelinePerimeter;whiteSpace=wrap;html=1;container=1;dropTarget=0;collapsible=0;recursiveResize=0;outlineConnect=0;portConstraint=eastwest;newEdgeStyle={&quot;curved&quot;:0,&quot;rounded&quot;:0};" parent="1" vertex="1">
          <mxGeometry x="530" y="80" width="100" height="290" as="geometry" />
        </mxCell>
        <mxCell id="FlEzBT69IL1nMeVk5zN6-6" value="Resource Server" style="shape=umlLifeline;perimeter=lifelinePerimeter;whiteSpace=wrap;html=1;container=1;dropTarget=0;collapsible=0;recursiveResize=0;outlineConnect=0;portConstraint=eastwest;newEdgeStyle={&quot;curved&quot;:0,&quot;rounded&quot;:0};" parent="1" vertex="1">
          <mxGeometry x="670" y="80" width="100" height="380" as="geometry" />
        </mxCell>
        <mxCell id="FlEzBT69IL1nMeVk5zN6-8" value="Request Auth Code" style="html=1;verticalAlign=bottom;startArrow=oval;startFill=1;endArrow=block;startSize=8;curved=0;rounded=0;" parent="1" edge="1" target="FlEzBT69IL1nMeVk5zN6-4">
          <mxGeometry width="60" relative="1" as="geometry">
            <mxPoint x="311" y="173" as="sourcePoint" />
            <mxPoint x="561" y="173" as="targetPoint" />
          </mxGeometry>
        </mxCell>
        <mxCell id="FlEzBT69IL1nMeVk5zN6-11" value="" style="shape=umlLifeline;perimeter=lifelinePerimeter;whiteSpace=wrap;html=1;container=1;dropTarget=0;collapsible=0;recursiveResize=0;outlineConnect=0;portConstraint=eastwest;newEdgeStyle={&quot;curved&quot;:0,&quot;rounded&quot;:0};participant=umlActor;size=40;" parent="1" vertex="1">
          <mxGeometry x="200" y="80" width="20" height="200" as="geometry" />
        </mxCell>
        <mxCell id="FlEzBT69IL1nMeVk5zN6-12" value="Ask for credentials" style="html=1;verticalAlign=bottom;startArrow=oval;startFill=1;endArrow=block;startSize=8;curved=0;rounded=0;" parent="1" edge="1" source="FlEzBT69IL1nMeVk5zN6-4">
          <mxGeometry width="60" relative="1" as="geometry">
            <mxPoint x="559.5" y="220" as="sourcePoint" />
            <mxPoint x="209.92857142857144" y="220" as="targetPoint" />
          </mxGeometry>
        </mxCell>
        <mxCell id="FlEzBT69IL1nMeVk5zN6-13" value="User Credentials on AuthServer" style="html=1;verticalAlign=bottom;endArrow=open;dashed=1;endSize=8;curved=0;rounded=0;fontSize=10;" parent="1" edge="1" target="FlEzBT69IL1nMeVk5zN6-4">
          <mxGeometry relative="1" as="geometry">
            <mxPoint x="209.92857142857144" y="250" as="sourcePoint" />
            <mxPoint x="559.5" y="250" as="targetPoint" />
          </mxGeometry>
        </mxCell>
        <mxCell id="FlEzBT69IL1nMeVk5zN6-14" value="Auth Code" style="html=1;verticalAlign=bottom;endArrow=open;dashed=1;endSize=8;curved=0;rounded=0;" parent="1" edge="1">
          <mxGeometry relative="1" as="geometry">
            <mxPoint x="449.92857142857133" y="270" as="sourcePoint" />
            <mxPoint x="579.5" y="270" as="targetPoint" />
          </mxGeometry>
        </mxCell>
        <mxCell id="FlEzBT69IL1nMeVk5zN6-15" value="Exchange code for token" style="html=1;verticalAlign=bottom;startArrow=oval;startFill=1;endArrow=block;startSize=8;curved=0;rounded=0;fontSize=10;" parent="1" edge="1">
          <mxGeometry width="60" relative="1" as="geometry">
            <mxPoint x="579.5" y="300" as="sourcePoint" />
            <mxPoint x="449.92857142857133" y="300" as="targetPoint" />
          </mxGeometry>
        </mxCell>
        <mxCell id="FlEzBT69IL1nMeVk5zN6-16" value="Access Token" style="html=1;verticalAlign=bottom;endArrow=open;dashed=1;endSize=8;curved=0;rounded=0;" parent="1" edge="1">
          <mxGeometry relative="1" as="geometry">
            <mxPoint x="449.92857142857133" y="330" as="sourcePoint" />
            <mxPoint x="579.5" y="330" as="targetPoint" />
          </mxGeometry>
        </mxCell>
        <mxCell id="FlEzBT69IL1nMeVk5zN6-17" value="Access Token" style="html=1;verticalAlign=bottom;endArrow=open;dashed=1;endSize=8;curved=0;rounded=0;" parent="1" edge="1" source="FlEzBT69IL1nMeVk5zN6-5">
          <mxGeometry relative="1" as="geometry">
            <mxPoint x="689.5" y="360" as="sourcePoint" />
            <mxPoint x="310" y="360" as="targetPoint" />
          </mxGeometry>
        </mxCell>
        <mxCell id="FlEzBT69IL1nMeVk5zN6-18" value="Request protected resource &lt;br&gt;with token" style="html=1;verticalAlign=bottom;startArrow=oval;startFill=1;endArrow=block;startSize=8;curved=0;rounded=0;fontSize=9;" parent="1" edge="1">
          <mxGeometry width="60" relative="1" as="geometry">
            <mxPoint x="310" y="410" as="sourcePoint" />
            <mxPoint x="719.5" y="410" as="targetPoint" />
          </mxGeometry>
        </mxCell>
        <mxCell id="FlEzBT69IL1nMeVk5zN6-19" value="Protected resource" style="html=1;verticalAlign=bottom;endArrow=open;dashed=1;endSize=8;curved=0;rounded=0;" parent="1" edge="1">
          <mxGeometry relative="1" as="geometry">
            <mxPoint x="719.5" y="440" as="sourcePoint" />
            <mxPoint x="310" y="440" as="targetPoint" />
          </mxGeometry>
        </mxCell>
      </root>
    </mxGraphModel>
  </diagram>
</mxfile>
